<?xml version="1.0" standalone="no"?>
<!DOCTYPE svg PUBLIC "-//W3C//DTD SVG 20010904//EN"
 "http://www.w3.org/TR/2001/REC-SVG-20010904/DTD/svg10.dtd">
<svg version="1.0" xmlns="http://www.w3.org/2000/svg"
 width="615.403833pt" height="221.000000pt" viewBox="0 0 615.403833 221.000000"
 preserveAspectRatio="xMidYMid meet">
<g transform="translate(-2.603987,227.000000) scale(0.100000,-0.100000)" stroke="none">
<path d="M5187 2108 c-176 -274 -448 -725 -601 -996 -32 -57 -62 -102 -66
-100 -5 2 -59 58 -122 125 -62 67 -138 143 -168 170 l-55 48 40 -55 c32 -46
147 -192 254 -323 20 -24 22 -33 13 -47 -64 -103 -459 -850 -449 -850 8 0 205
308 362 565 77 127 143 233 147 235 3 3 64 -56 135 -130 70 -75 150 -156 178
-180 l49 -45 -39 55 c-54 76 -136 180 -217 276 -37 45 -68 85 -68 89 0 4 53
101 119 214 230 399 613 1111 598 1111 -3 0 -52 -73 -110 -162z"/>
<path d="M1913 2202 c-6 -9 -60 -94 -121 -188 -217 -336 -550 -902 -817 -1389
-110 -200 -298 -565 -292 -565 18 0 424 658 670 1087 241 419 585 1058 575
1068 -2 2 -9 -4 -15 -13z"/>
<path d="M250 1974 c-59 -29 -172 -137 -204 -195 l-20 -34 48 42 c138 122 294
126 346 10 51 -111 7 -225 -149 -389 -55 -57 -126 -125 -159 -153 -33 -27 -58
-53 -56 -57 3 -4 133 -8 289 -8 262 0 284 1 289 18 2 9 7 60 11 112 5 89 5 93
-10 68 -26 -47 -48 -52 -230 -56 l-170 -4 112 108 c61 60 130 138 152 174 94
147 92 282 -6 357 -31 24 -47 28 -112 31 -66 3 -83 0 -131 -24z"/>
<path d="M1235 1963 c-20 -24 -20 -24 -232 -23 l-211 0 -6 -47 c-3 -27 -17
-174 -31 -328 -14 -154 -27 -295 -29 -313 l-5 -33 42 36 c41 35 118 65 166 65
42 -1 105 -35 138 -75 38 -45 57 -110 58 -191 l0 -62 36 62 c97 168 94 160 81
204 -17 55 -68 120 -124 158 -81 55 -222 68 -299 28 -17 -8 -33 -13 -36 -10
-5 4 12 223 23 298 l6 38 201 2 202 3 22 100 c13 55 22 103 20 106 -1 3 -11
-5 -22 -18z"/>
<path d="M1750 1680 c-11 -21 -20 -42 -20 -45 0 -3 18 7 40 21 43 29 46 34 28
52 -19 19 -26 15 -48 -28z"/>
<path d="M5431 1596 l-54 -54 64 15 c35 9 68 19 73 24 5 4 0 21 -11 38 l-19
31 -53 -54z"/>
<path d="M1853 1468 c-6 -7 -18 -57 -28 -110 l-17 -98 -56 0 c-49 0 -60 4 -89
32 -31 30 -34 31 -51 15 -21 -19 -49 -21 -86 -7 -23 9 -28 6 -51 -35 -20 -33
-35 -91 -61 -236 -19 -106 -34 -205 -32 -219 7 -56 78 -22 78 37 0 19 5 23 29
23 25 0 30 -4 33 -27 2 -21 9 -29 27 -31 34 -5 45 11 56 81 l10 62 109 3 109
3 -7 -33 c-4 -18 -9 -50 -13 -70 -5 -38 -6 -38 -52 -38 -60 0 -91 -9 -91 -26
0 -8 18 -15 46 -20 28 -4 50 -14 57 -25 17 -27 61 -24 85 6 11 14 24 56 32
101 17 109 13 104 86 104 80 0 88 14 43 70 l-33 40 -26 -25 c-27 -26 -40 -31
-40 -17 0 5 11 14 25 20 29 13 32 29 8 35 -10 3 10 5 45 6 73 1 79 15 32 70
l-29 34 -31 -27 c-21 -17 -43 -26 -66 -26 -34 0 -35 1 -32 33 l3 32 75 3 c41
2 79 7 84 12 5 5 -15 35 -48 72 -32 34 -71 91 -87 125 -17 35 -31 63 -33 63
-2 0 -8 -6 -13 -12z m75 -178 l23 -30 -31 0 c-25 0 -30 4 -30 23 0 19 7 37 15
37 1 0 11 -13 23 -30z m-352 -120 c-9 -57 -11 -60 -39 -60 -29 0 -29 0 -22 46
10 67 14 74 44 74 l27 0 -10 -60z m154 40 c32 0 61 -3 63 -8 3 -4 3 -19 0 -35
-5 -26 -7 -27 -74 -27 -75 0 -75 0 -62 61 3 19 8 28 11 21 2 -8 25 -12 62 -12z
m120 -142 c0 -42 -11 -46 -118 -50 -99 -3 -102 -2 -102 19 0 51 5 53 116 53
101 0 104 -1 104 -22z m-305 -70 c-9 -66 -10 -68 -42 -68 -25 0 -26 2 -19 46
3 26 6 53 6 60 0 9 12 14 31 14 l31 0 -7 -52z"/>
<path d="M4238 1462 c-24 -5 -22 -22 7 -57 21 -26 24 -27 23 -10 -1 45 -13 71
-30 67z"/>
<path d="M2661 1370 c-9 -5 -11 -17 -7 -36 9 -34 -13 -164 -28 -164 -6 0 -66
-7 -132 -14 -67 -8 -131 -12 -142 -10 -25 7 -36 -10 -28 -41 11 -42 34 -47
161 -30 64 8 119 15 122 15 11 0 -9 -57 -48 -134 -124 -248 -379 -466 -666
-569 -85 -31 -216 -57 -284 -57 -39 0 -49 -3 -49 -17 0 -14 11 -15 99 -10 167
11 365 72 509 156 250 146 419 342 530 612 9 23 18 27 73 32 34 4 94 7 133 7
74 0 96 10 96 42 0 37 -37 46 -155 38 -60 -5 -111 -8 -112 -6 -2 1 3 39 9 84
8 52 9 85 3 91 -15 13 -69 21 -84 11z"/>
<path d="M5280 1318 c1 -20 89 -91 105 -84 16 6 20 33 7 53 -9 14 -74 43 -97
43 -8 0 -15 -6 -15 -12z"/>
<path d="M3520 1307 c-32 -16 -38 -46 -11 -66 l20 -16 -50 -295 c-51 -303 -58
-405 -29 -405 23 0 53 107 110 391 28 141 58 274 66 296 19 54 18 65 -8 82
-35 23 -71 27 -98 13z"/>
<path d="M5078 1309 c-24 -14 -23 -43 2 -60 21 -14 21 -14 -26 -289 -50 -294
-60 -425 -34 -425 22 0 53 103 95 311 20 98 38 185 41 193 5 16 65 -25 102
-71 31 -37 75 -38 98 -2 40 60 -36 127 -137 122 l-56 -3 9 40 c18 79 29 115
36 115 5 0 26 -18 47 -40 40 -41 69 -51 78 -26 12 30 -55 86 -103 86 -11 0
-20 6 -20 14 0 37 -89 60 -132 35z"/>
<path d="M3208 1188 c-3 -7 0 -25 6 -40 10 -26 6 -32 -39 -79 -55 -56 -295
-240 -381 -291 -57 -34 -73 -68 -32 -68 25 0 156 69 275 146 l85 55 -6 -38
c-4 -21 -16 -68 -27 -105 -23 -71 -20 -112 7 -122 27 -10 62 21 74 63 17 63
40 231 33 247 -3 9 18 39 61 83 37 39 66 78 66 89 0 44 -110 98 -122 60z"/>
<path d="M4125 1169 c-44 -5 -109 -10 -145 -11 -57 -3 -65 -5 -68 -24 -2 -11
6 -31 16 -44 l19 -23 156 14 c87 8 157 12 157 9 0 -7 -63 -214 -67 -220 -7 -8
-306 -29 -334 -23 -15 3 -30 0 -34 -7 -10 -17 14 -68 36 -75 28 -9 370 16 399
29 19 9 25 19 27 46 1 19 13 72 28 118 l26 83 -53 70 c-29 38 -60 68 -68 68
-8 -1 -51 -6 -95 -10z"/>
<path d="M5820 1163 c-13 -3 -78 -25 -143 -49 -123 -46 -154 -51 -189 -33 -17
9 -24 8 -34 -6 -14 -19 -9 -40 14 -67 25 -29 80 -22 171 22 74 36 82 38 67 18
-40 -55 -66 -124 -66 -175 0 -44 5 -58 29 -85 26 -29 35 -33 97 -36 61 -4 71
-1 89 18 31 34 10 55 -59 56 -31 1 -63 7 -71 14 -19 16 -20 80 -1 124 31 75
127 149 171 132 9 -3 27 -1 41 4 20 8 25 16 22 38 -3 26 -6 27 -58 28 -30 1
-66 0 -80 -3z"/>
<path d="M4875 1084 c-11 -2 -55 -6 -97 -9 -74 -6 -78 -8 -98 -40 -11 -18 -20
-35 -20 -38 0 -9 274 5 288 16 13 10 17 53 5 60 -14 8 -58 14 -78 11z"/>
<path d="M3613 1074 c-22 -9 -14 -41 13 -59 14 -9 43 -32 64 -52 45 -40 75
-38 91 5 18 47 -40 100 -120 108 -20 2 -42 1 -48 -2z"/>
<path d="M5880 1025 c37 -38 57 -44 67 -18 9 22 -31 53 -70 53 l-31 0 34 -35z"/>
<path d="M5810 1002 c0 -16 68 -74 79 -68 18 12 12 34 -15 55 -27 21 -64 28
-64 13z"/>
<path d="M1670 933 c0 -3 12 -26 26 -50 27 -46 48 -52 68 -20 9 15 5 23 -22
48 -29 26 -72 40 -72 22z"/>
<path d="M6023 910 c-80 -36 -108 -129 -57 -189 22 -26 33 -31 71 -31 113 0
185 124 116 199 -37 39 -77 46 -130 21z m76 -59 c21 -14 16 -62 -9 -83 -27
-22 -54 -23 -74 -2 -22 22 -20 41 9 69 25 26 50 31 74 16z"/>
<path d="M660 907 c-20 -10 -26 -21 -28 -53 -6 -77 66 -129 194 -141 90 -8
173 15 174 49 0 4 -14 2 -31 -4 -40 -14 -105 -5 -131 19 -12 10 -36 41 -55 70
-46 72 -73 85 -123 60z"/>
<path d="M1975 860 c-11 -17 89 -165 114 -168 61 -9 69 57 14 109 -68 64 -112
85 -128 59z"/>
<path d="M1255 823 c4 -10 10 -26 12 -35 9 -29 21 -21 25 17 4 31 2 35 -20 35
-19 0 -23 -4 -17 -17z"/>
<path d="M1152 664 c-29 -58 -52 -108 -50 -109 7 -6 111 -25 115 -21 2 2 1 57
-4 121 l-8 116 -53 -107z"/>
<path d="M4546 635 c-10 -8 -24 -16 -30 -18 -6 -2 15 -32 48 -66 43 -45 57
-56 53 -39 -3 13 -11 49 -18 81 -13 59 -21 66 -53 42z"/>
<path d="M830 617 c0 -24 12 -27 41 -11 38 19 37 24 -6 24 -22 0 -35 -5 -35
-13z"/>
<path d="M4386 368 l-36 -53 32 -11 33 -11 6 61 c4 34 6 62 4 64 -1 1 -19 -21
-39 -50z"/>
</g>
</svg>
